Run_20002
nRows=4
nColumns=164

# SIMM Motion File Header:
name Run_20002
datacolumns 164
datarows 4
otherdata 1
range 2.85833300 2.88333300
endheader
time	pelvis_tilt	pelvis_list	pelvis_rotation	pelvis_tx	pelvis_ty	pelvis_tz	hip_flexion_r	hip_adduction_r	hip_rotation_r	knee_angle_r	ankle_angle_r	hip_flexion_l	hip_adduction_l	hip_rotation_l	knee_angle_l	ankle_angle_l	lumbar_extension	lumbar_bending	lumbar_rotation	arm_flex_r	arm_add_r	arm_rot_r	elbow_flex_r	pro_sup_r	arm_flex_l	arm_add_l	arm_rot_l	elbow_flex_l	pro_sup_l	subtalar_angle_r	mtp_angle_r	subtalar_angle_l	mtp_angle_l	wrist_flex_r	wrist_dev_r	wrist_flex_l	wrist_dev_l	LASI_tx	LASI_ty	LASI_tz	RASI_tx	RASI_ty	RASI_tz	LPSI_tx	LPSI_ty	LPSI_tz	RPSI_tx	RPSI_ty	RPSI_tz	RTH1_tx	RTH1_ty	RTH1_tz	RTH2_tx	RTH2_ty	RTH2_tz	RTH3_tx	RTH3_ty	RTH3_tz	LTH1_tx	LTH1_ty	LTH1_tz	LTH2_tx	LTH2_ty	LTH2_tz	LTH3_tx	LTH3_ty	LTH3_tz	RTB1_tx	RTB1_ty	RTB1_tz	RTB2_tx	RTB2_ty	RTB2_tz	RTB3_tx	RTB3_ty	RTB3_tz	LTB1_tx	LTB1_ty	LTB1_tz	LTB2_tx	LTB2_ty	LTB2_tz	LTB3_tx	LTB3_ty	LTB3_tz	RCAL_tx	RCAL_ty	RCAL_tz	RTOE_tx	RTOE_ty	RTOE_tz	RMT5_tx	RMT5_ty	RMT5_tz	LCAL_tx	LCAL_ty	LCAL_tz	LTOE_tx	LTOE_ty	LTOE_tz	LMT5_tx	LMT5_ty	LMT5_tz	LACR_tx	LACR_ty	LACR_tz	RACR_tx	RACR_ty	RACR_tz	CLAV_tx	CLAV_ty	CLAV_tz	C7_tx	C7_ty	C7_tz	RUA1_tx	RUA1_ty	RUA1_tz	RUA2_tx	RUA2_ty	RUA2_tz	RUA3_tx	RUA3_ty	RUA3_tz	RLEL_tx	RLEL_ty	RLEL_tz	RMEL_tx	RMEL_ty	RMEL_tz	LUA1_tx	LUA1_ty	LUA1_tz	LUA2_tx	LUA2_ty	LUA2_tz	LUA3_tx	LUA3_ty	LUA3_tz	LLEL_tx	LLEL_ty	LLEL_tz	LMEL_tx	LMEL_ty	LMEL_tz	RFAsuperior_tx	RFAsuperior_ty	RFAsuperior_tz	RFAradius_tx	RFAradius_ty	RFAradius_tz	RFAulna_tx	RFAulna_ty	RFAulna_tz	LFAsuperior_tx	LFAsuperior_ty	LFAsuperior_tz	LFAradius_tx	LFAradius_ty	LFAradius_tz	LFAulna_tx	LFAulna_ty	LFAulna_tz
      2.85833300	     -3.46187672	      0.27652584	     -4.42112145	      0.89329861	      1.07594750	     -0.30978202	     -3.83026078	      3.91216989	      7.37396497	    -22.76730233	     14.07651666	     33.51333738	      1.27709823	     -2.25290659	    -54.62890860	     10.53944742	    -13.51195615	     -0.91170960	     13.71129103	     -3.99270723	    -28.51427245	     -4.86297470	    121.59107143	    102.43711009	    -30.73126139	    -23.48511013	      8.43276052	    115.19692370	    101.48624279	      0.00000000	      0.00000000	      0.00000000	      0.00000000	      0.00000000	      0.00000000	      0.00000000	      0.00000000	      0.89550870	      1.08752850	     -0.44310986	      0.88324772	      1.09289736	     -0.18163497	      0.71264050	      1.13133183	     -0.36525570	      0.70821126	      1.12752137	     -0.28226881	      0.78979932	      0.91700957	     -0.13919625	      0.81987164	      0.80223460	     -0.15529620	      0.72459730	      0.70395332	     -0.18622483	      0.89157215	      0.88742843	     -0.48966560	      0.99893821	      0.80358234	     -0.47165123	      0.97866178	      0.67744285	     -0.44866734	      0.70064383	      0.39945349	     -0.27451240	      0.65421335	      0.34506365	     -0.21045239	      0.61512475	      0.25595958	     -0.28134445	      1.03321189	      0.45754938	     -0.38163180	      0.97467642	      0.38711629	     -0.43662817	      0.94603427	      0.27548727	     -0.37249282	      0.44220664	      0.16012537	     -0.29477979	      0.65596656	      0.06461564	     -0.30977275	      0.58226757	      0.05912137	     -0.22044561	      0.79317855	      0.18166472	     -0.35963621	      1.01307207	      0.10098410	     -0.35481091	      0.93592499	      0.09270149	     -0.43795721	      0.88884673	      1.56017848	     -0.48941326	      0.92470348	      1.56423050	     -0.15213643	      0.95417685	      1.50481723	     -0.29331411	      0.83245949	      1.59577122	     -0.30854537	      0.91936433	      1.46567721	     -0.07026689	      0.92839153	      1.37574516	     -0.07166860	      0.86764487	      1.36747912	     -0.02069492	      0.87488417	      1.23615532	      0.03491563	      0.82874025	      1.21345543	     -0.03416172	      0.83305881	      1.49666765	     -0.56397383	      0.81734899	      1.42671546	     -0.56777179	      0.72363793	      1.45394700	     -0.54794084	      0.64524996	      1.31732763	     -0.61775355	      0.60611121	      1.32024410	     -0.53958170	      0.97437283	      1.25195743	     -0.00738593	      1.08427673	      1.28670201	     -0.14205654	      1.10909401	      1.23088869	     -0.10100486	      0.73339353	      1.27585263	     -0.60070917	      0.87207030	      1.22865229	     -0.49016605	      0.85069694	      1.16908161	     -0.52536413
      2.86666700	     -3.53709678	      0.86058054	     -4.15070722	      0.89529209	      1.08045118	     -0.31034761	     -4.94621949	      3.07278194	      6.74125847	    -21.97438244	     11.55798903	     32.99307694	      2.14509936	     -1.99301716	    -50.41484775	     10.28720397	    -13.17643795	     -1.58732533	     13.46096534	     -4.01028291	    -28.29858851	     -4.56280758	    123.23436501	    103.04764942	    -31.93834302	    -23.45738151	      7.70639317	    115.97988057	    100.98105020	      0.00000000	      0.00000000	      0.00000000	      0.00000000	      0.00000000	      0.00000000	      0.00000000	      0.00000000	      0.89695583	      1.09321272	     -0.44345862	      0.88539736	      1.09664458	     -0.18126876	      0.71439567	      1.13608936	     -0.36471245	      0.71035763	      1.13202500	     -0.28163770	      0.79031064	      0.92135799	     -0.13938761	      0.81808717	      0.80626384	     -0.15597567	      0.72021004	      0.70971365	     -0.18524516	      0.89141442	      0.89189838	     -0.48982874	      0.99743459	      0.80700841	     -0.47274855	      0.97612805	      0.68076099	     -0.44864659	      0.69073347	      0.40494422	     -0.27326943	      0.64326454	      0.35125672	     -0.20933006	      0.60457306	      0.26189573	     -0.28017590	      1.03783880	      0.45999515	     -0.38111149	      0.98469655	      0.38557465	     -0.43657321	      0.96187051	      0.27300749	     -0.37170362	      0.43226130	      0.16958822	     -0.29469639	      0.64120876	      0.06393578	     -0.30901682	      0.56717535	      0.06149910	     -0.22060129	      0.81488441	      0.16978968	     -0.36118201	      1.03926985	      0.10343812	     -0.34967287	      0.96484216	      0.08837809	     -0.43406879	      0.88903438	      1.56499386	     -0.48991958	      0.92610948	      1.56988359	     -0.15333588	      0.95472714	      1.50986873	     -0.29422581	      0.83317213	      1.60048669	     -0.30893938	      0.92097477	      1.47194912	     -0.07091894	      0.93039149	      1.38196878	     -0.07239628	      0.86948515	      1.37350665	     -0.02161967	      0.87767514	      1.24186740	      0.03384103	      0.83104019	      1.21909378	     -0.03496893	      0.83246010	      1.50250584	     -0.56369948	      0.81588386	      1.43301646	     -0.56769024	      0.72262210	      1.46131386	     -0.54587698	      0.64134170	      1.32600253	     -0.61576128	      0.60449730	      1.32897046	     -0.53738962	      0.97620544	      1.26018065	     -0.00965981	      1.08260024	      1.29911975	     -0.14608303	      1.10971095	      1.24362858	     -0.10555062	      0.72950301	      1.28415482	     -0.59964993	      0.86964935	      1.23662689	     -0.49121324	      0.84729082	      1.17697285	     -0.52543394
      2.87500000	     -3.61603889	      1.34143077	     -3.91891641	      0.89731790	      1.08459294	     -0.31090640	     -5.94632093	      2.36400276	      6.16953778	    -21.38473599	      8.97465985	     32.35467854	      2.94215492	     -1.51880653	    -46.12819758	     10.13967608	    -12.84633954	     -2.14274815	     13.19157997	     -4.01012801	    -28.10566507	     -4.15599254	    124.77682120	    103.87299310	    -33.10473707	    -23.33312003	      7.02305361	    116.66661736	    100.46073126	      0.00000000	      0.00000000	      0.00000000	      0.00000000	      0.00000000	      0.00000000	      0.00000000	      0.00000000	      0.89855397	      1.09840836	     -0.44374249	      0.88752408	      1.10010895	     -0.18100984	      0.71622762	      1.14041457	     -0.36435434	      0.71248156	      1.13624676	     -0.28111716	      0.79111169	      0.92550683	     -0.13947509	      0.81676251	      0.81011426	     -0.15642406	      0.71655073	      0.71531856	     -0.18414135	      0.89121830	      0.89562774	     -0.48977202	      0.99595536	      0.80966286	     -0.47377699	      0.97335612	      0.68334384	     -0.44878448	      0.68175918	      0.41051954	     -0.27211068	      0.63328036	      0.35753475	     -0.20809459	      0.59483398	      0.26785327	     -0.27886219	      1.04167884	      0.46203572	     -0.38043941	      0.99423757	      0.38406684	     -0.43644398	      0.97699411	      0.27087449	     -0.37080178	      0.42317609	      0.17923452	     -0.29436448	      0.62647436	      0.06329154	     -0.30841409	      0.55232444	      0.06398619	     -0.22058859	      0.83645111	      0.15842464	     -0.36293115	      1.06429258	      0.10711660	     -0.34431060	      0.99332722	      0.08543747	     -0.42986369	      0.88948555	      1.56943118	     -0.49044953	      0.92727669	      1.57513655	     -0.15443260	      0.95520946	      1.51455031	     -0.29500290	      0.83384062	      1.60491849	     -0.30943117	      0.92234371	      1.47777467	     -0.07151171	      0.93208154	      1.38775787	     -0.07297883	      0.87095638	      1.37910268	     -0.02247775	      0.88007310	      1.24713920	      0.03276064	      0.83291714	      1.22433878	     -0.03577123	      0.83224840	      1.50767325	     -0.56349990	      0.81482815	      1.43861695	     -0.56754726	      0.72204127	      1.46804037	     -0.54408285	      0.63796008	      1.33398318	     -0.61370368	      0.60355309	      1.33696805	     -0.53524372	      0.97760195	      1.26778036	     -0.01195171	      1.08056796	      1.31052657	     -0.15008366	      1.10982221	      1.25552279	     -0.10975199	      0.72603204	      1.29174805	     -0.59836693	      0.86760364	      1.24387449	     -0.49199101	      0.84427032	      1.18411639	     -0.52521874
      2.88333300	     -3.70316450	      1.72406439	     -3.72460297	      0.89940316	      1.08829656	     -0.31147869	     -6.81588961	      1.77440340	      5.64497000	    -21.01842727	      6.38361958	     31.61999986	      3.65428254	     -0.82420388	    -41.83149043	     10.09523018	    -12.50272342	     -2.58296383	     12.91794976	     -4.02226054	    -27.93432555	     -3.65664104	    126.20663065	    104.78597824	    -34.22524595	    -23.13283621	      6.38317492	    117.27138217	     99.88648681	      0.00000000	      0.00000000	      0.00000000	      0.00000000	      0.00000000	      0.00000000	      0.00000000	      0.00000000	      0.90024776	      1.10298990	     -0.44394126	      0.88967275	      1.10317736	     -0.18088595	      0.71815490	      1.14432524	     -0.36415339	      0.71462802	      1.14008171	     -0.28074567	      0.79209901	      0.92934834	     -0.13949336	      0.81578659	      0.81369150	     -0.15666378	      0.71360111	      0.72065921	     -0.18300499	      0.89116059	      0.89889243	     -0.48986701	      0.99469213	      0.81157417	     -0.47466513	      0.97051780	      0.68514093	     -0.44916948	      0.67377980	      0.41605472	     -0.27104247	      0.62436193	      0.36379156	     -0.20675549	      0.58594295	      0.27373171	     -0.27747192	      1.04480929	      0.46367611	     -0.37983961	      1.00312975	      0.38265318	     -0.43629433	      0.99123654	      0.26910090	     -0.36978809	      0.41497388	      0.18902135	     -0.29379062	      0.61173517	      0.06279842	     -0.30792276	      0.53772486	      0.06665859	     -0.22043294	      0.85768134	      0.14774691	     -0.36468567	      1.08781006	      0.11185321	     -0.33886554	      1.02090701	      0.08395502	     -0.42554876	      0.89015263	      1.57343986	     -0.49097571	      0.92819339	      1.57993414	     -0.15545307	      0.95562655	      1.51882168	     -0.29565804	      0.83445320	      1.60898661	     -0.31002073	      0.92347916	      1.48307191	     -0.07211443	      0.93346206	      1.39303474	     -0.07347213	      0.87214139	      1.38419334	     -0.02324214	      0.88206127	      1.25194627	      0.03167299	      0.83434163	      1.22916306	     -0.03656855	      0.83237107	      1.51220916	     -0.56345862	      0.81413649	      1.44351173	     -0.56742572	      0.72187440	      1.47406905	     -0.54259036	      0.63513075	      1.34115053	     -0.61171792	      0.60267116	      1.34419187	     -0.53307581	      0.97856187	      1.27470624	     -0.01425781	      1.07825253	      1.32085515	     -0.15401060	      1.10944344	      1.26641804	     -0.11368453	      0.72305102	      1.29862057	     -0.59717470	      0.86600104	      1.25038651	     -0.49263576	      0.84171672	      1.19048168	     -0.52479206
